<svg xmlns="http://www.w3.org/2000/svg" width="26" height="34" viewBox="0 0 26 34">
  <!-- Пекарь Гоги, вид сверху: колпак, белый фартук, противень с хачапури. -->
  <ellipse cx="13" cy="19" rx="11" ry="10" fill="#000" opacity="0.12"/>
  <circle cx="4.6" cy="24" r="2.4" fill="#e9b98d"/>
  <circle cx="21.4" cy="24" r="2.4" fill="#e9b98d"/>
  <!-- рубаха и фартук -->
  <ellipse cx="13" cy="18" rx="10" ry="9" fill="#7a5c3e"/>
  <ellipse cx="13" cy="18.6" rx="7.2" ry="7" fill="#f4f4f2"/>
  <path d="M7 13.6 Q13 16.6 19 13.6" fill="none" stroke="#d8d3c8" stroke-width="1.2"/>
  <!-- противень с хачапури -->
  <rect x="6" y="23.2" width="14" height="9" rx="2" fill="#9a9da6"/>
  <circle cx="13" cy="27.6" r="3.8" fill="#d9932f"/>
  <circle cx="13" cy="27.6" r="2.6" fill="#f2c14e"/>
  <circle cx="13" cy="27.6" r="1.4" fill="#f7dc8c"/>
  <!-- голова в колпаке -->
  <circle cx="13" cy="12.6" r="4.2" fill="#f2c9a0"/>
  <circle cx="13" cy="9.6" r="5.4" fill="#ffffff"/>
  <circle cx="9.4" cy="7.6" r="2.4" fill="#ffffff"/>
  <circle cx="13.2" cy="6.4" r="2.6" fill="#ffffff"/>
  <circle cx="16.8" cy="7.6" r="2.4" fill="#ffffff"/>
  <circle cx="11.6" cy="8.8" r="4" fill="#f4f1ea" opacity="0.7"/>
  <!-- усы -->
  <path d="M10.6 15.4 Q13 17 15.4 15.4" fill="none" stroke="#5b3a29" stroke-width="1.6" stroke-linecap="round"/>
</svg>
