<svg xmlns="http://www.w3.org/2000/svg" width="48" height="32" viewBox="0 0 48 32">
  <!-- Купата лает (настоящий окрас с мурала): голова вперёд, пасть открыта. -->
  <ellipse cx="22" cy="17" rx="16" ry="9" fill="#000" opacity="0.18"/>
  <path d="M8 16 Q2 12 4 6" fill="none" stroke="#f2efe9" stroke-width="3.4" stroke-linecap="round"/>
  <!-- лапы упёрты -->
  <ellipse cx="30" cy="7" rx="3.4" ry="2.4" fill="#e5e0d7"/>
  <ellipse cx="30" cy="25" rx="3.4" ry="2.4" fill="#e5e0d7"/>
  <ellipse cx="14" cy="7.5" rx="2.9" ry="2.1" fill="#d9d4cc"/>
  <ellipse cx="14" cy="24.5" rx="2.9" ry="2.1" fill="#d9d4cc"/>
  <ellipse cx="21" cy="16" rx="13.6" ry="8.4" fill="#f2efe9"/>
  <ellipse cx="20" cy="15.2" rx="9.6" ry="4.9" fill="#faf8f2"/>
  <ellipse cx="24" cy="20.6" rx="3.8" ry="2.7" transform="rotate(14 24 20.6)" fill="#1f1f1f"/>
  <circle cx="27.5" cy="10.5" r="0.9" fill="#1f1f1f"/>
  <circle cx="24.5" cy="12" r="0.7" fill="#1f1f1f"/>
  <circle cx="22" cy="12.8" r="0.7" fill="#1f1f1f"/>
  <!-- голова чуть вперёд -->
  <circle cx="36.6" cy="16" r="7.8" fill="#f2efe9"/>
  <ellipse cx="35.8" cy="11.5" rx="5.7" ry="3.6" fill="#1f1f1f"/>
  <ellipse cx="35.8" cy="20.5" rx="5.7" ry="3.6" fill="#1f1f1f"/>
  <path d="M33.5 16 L42.4 13.9 L42.4 18.1 Z" fill="#f2efe9"/>
  <ellipse cx="33.4" cy="9.2" rx="3" ry="4" transform="rotate(-38 33.4 9.2)" fill="#1f1f1f"/>
  <ellipse cx="33.4" cy="22.8" rx="3" ry="4" transform="rotate(38 33.4 22.8)" fill="#1f1f1f"/>
  <!-- открытая пасть, нос на проточине перед ней -->
  <path d="M42.2 13.2 L47 16 L42.2 18.8 Z" fill="#8c3b1b"/>
  <path d="M42.6 14.6 L45.4 16 L42.6 17.4 Z" fill="#e07a7a"/>
  <ellipse cx="41.2" cy="16" rx="1.6" ry="1.4" fill="#1a1a1a"/>
</svg>
