<svg xmlns="http://www.w3.org/2000/svg" width="48" height="32" viewBox="0 0 48 32">
  <!-- Купата (настоящий окрас с мурала), кадр бега B: лапы в противофазе,
       хвост ниже. -->
  <ellipse cx="23" cy="17" rx="16" ry="9" fill="#000" opacity="0.18"/>
  <path d="M9 16 Q2 16 2 10" fill="none" stroke="#f2efe9" stroke-width="3.4" stroke-linecap="round"/>
  <path d="M2.6 11.6 Q2 10 3.2 8.8" fill="none" stroke="#d9d4cc" stroke-width="2.2" stroke-linecap="round"/>
  <!-- лапы: кадр B — правая передняя и левая задняя вынесены -->
  <ellipse cx="31" cy="24.5" rx="3.4" ry="2.4" fill="#e5e0d7"/>
  <ellipse cx="15" cy="7.5" rx="3.4" ry="2.4" fill="#e5e0d7"/>
  <ellipse cx="30" cy="6.5" rx="2.9" ry="2.1" fill="#d9d4cc"/>
  <ellipse cx="16" cy="25.5" rx="2.9" ry="2.1" fill="#d9d4cc"/>
  <ellipse cx="22" cy="16" rx="14" ry="8.6" fill="#f2efe9"/>
  <ellipse cx="21" cy="15.2" rx="10" ry="5" fill="#faf8f2"/>
  <path d="M12 16 Q22 13.4 32 16" fill="none" stroke="#d9d4cc" stroke-width="1.2" opacity="0.7"/>
  <ellipse cx="25" cy="20.8" rx="3.9" ry="2.8" transform="rotate(14 25 20.8)" fill="#1f1f1f"/>
  <circle cx="28.5" cy="10.5" r="0.9" fill="#1f1f1f"/>
  <circle cx="25.5" cy="12" r="0.7" fill="#1f1f1f"/>
  <circle cx="23" cy="12.8" r="0.7" fill="#1f1f1f"/>
  <circle cx="36" cy="16" r="7.6" fill="#f2efe9"/>
  <ellipse cx="35.2" cy="11.6" rx="5.6" ry="3.5" fill="#1f1f1f"/>
  <ellipse cx="35.2" cy="20.4" rx="5.6" ry="3.5" fill="#1f1f1f"/>
  <path d="M33 16 L43.5 13.6 L43.5 18.4 Z" fill="#f2efe9"/>
  <ellipse cx="33" cy="9.4" rx="3" ry="4" transform="rotate(-30 33 9.4)" fill="#1f1f1f"/>
  <ellipse cx="33" cy="22.6" rx="3" ry="4" transform="rotate(30 33 22.6)" fill="#1f1f1f"/>
  <ellipse cx="42.4" cy="16" rx="4" ry="3.2" fill="#faf8f2"/>
  <ellipse cx="45.2" cy="16" rx="2" ry="1.8" fill="#1a1a1a"/>
</svg>
