<svg xmlns="http://www.w3.org/2000/svg" width="48" height="32" viewBox="0 0 48 32">
  <!-- Купата объелся: круглый живот, лапы враскоряку, язык. -->
  <ellipse cx="23" cy="17" rx="17" ry="10" fill="#000" opacity="0.12"/>
  <path d="M7 16 Q3 18 3 22" fill="none" stroke="#e8842c" stroke-width="3.4" stroke-linecap="round"/>
  <!-- лапы враскоряку -->
  <ellipse cx="29" cy="6.6" rx="3.2" ry="2.3" fill="#d1731f"/>
  <ellipse cx="29" cy="25.4" rx="3.2" ry="2.3" fill="#d1731f"/>
  <ellipse cx="13" cy="6.6" rx="3.2" ry="2.3" fill="#c2681a"/>
  <ellipse cx="13" cy="25.4" rx="3.2" ry="2.3" fill="#c2681a"/>
  <!-- раздутый корпус -->
  <ellipse cx="21" cy="16" rx="15.4" ry="10" fill="#e8842c"/>
  <ellipse cx="20" cy="15" rx="11.4" ry="6.4" fill="#f09a48"/>
  <ellipse cx="21" cy="17.6" rx="8.4" ry="4.4" fill="#f6b877"/>
  <!-- голова откинута -->
  <circle cx="36.6" cy="16" r="7.2" fill="#e8842c"/>
  <ellipse cx="36" cy="15" rx="5.2" ry="4.2" fill="#f09a48"/>
  <ellipse cx="33.6" cy="9.8" rx="2.8" ry="3.8" transform="rotate(-30 33.6 9.8)" fill="#b5641c"/>
  <ellipse cx="33.6" cy="22.2" rx="2.8" ry="3.8" transform="rotate(30 33.6 22.2)" fill="#b5641c"/>
  <!-- закрытые глаза (чёрточки) и язык -->
  <path d="M36.2 12.4 l2.6 0.8 M36.2 19.6 l2.6 -0.8" stroke="#4a2c14" stroke-width="1" stroke-linecap="round"/>
  <ellipse cx="42.6" cy="16" rx="3.6" ry="2.9" fill="#f4a95c"/>
  <ellipse cx="45" cy="16" rx="1.5" ry="1.3" fill="#4a2c14"/>
  <path d="M44.4 17.4 Q45.8 19.4 44.6 21" fill="none" stroke="#e07a7a" stroke-width="2" stroke-linecap="round"/>
</svg>
