<svg xmlns="http://www.w3.org/2000/svg" width="48" height="32" viewBox="0 0 48 32">
  <!-- Купата, кадр бега B: лапы в противофазе, хвост ниже. -->
  <ellipse cx="23" cy="17" rx="16" ry="9" fill="#000" opacity="0.12"/>
  <path d="M9 16 Q2 16 2 10" fill="none" stroke="#e8842c" stroke-width="3.4" stroke-linecap="round"/>
  <path d="M2.6 11.6 Q2 10 3.2 8.8" fill="none" stroke="#f4a95c" stroke-width="2.2" stroke-linecap="round"/>
  <!-- лапы: кадр B — правая передняя и левая задняя вынесены -->
  <ellipse cx="31" cy="24.5" rx="3.4" ry="2.4" fill="#d1731f"/>
  <ellipse cx="15" cy="7.5" rx="3.4" ry="2.4" fill="#d1731f"/>
  <ellipse cx="30" cy="6.5" rx="2.9" ry="2.1" fill="#c2681a"/>
  <ellipse cx="16" cy="25.5" rx="2.9" ry="2.1" fill="#c2681a"/>
  <ellipse cx="22" cy="16" rx="14" ry="8.6" fill="#e8842c"/>
  <ellipse cx="21" cy="15.2" rx="10" ry="5" fill="#f09a48"/>
  <path d="M12 16 Q22 13.4 32 16" fill="none" stroke="#d1731f" stroke-width="1.2" opacity="0.6"/>
  <circle cx="36" cy="16" r="7.6" fill="#e8842c"/>
  <ellipse cx="35.4" cy="15" rx="5.4" ry="4.4" fill="#f09a48"/>
  <ellipse cx="33" cy="9.4" rx="3" ry="4" transform="rotate(-30 33 9.4)" fill="#b5641c"/>
  <ellipse cx="33" cy="22.6" rx="3" ry="4" transform="rotate(30 33 22.6)" fill="#b5641c"/>
  <ellipse cx="42.4" cy="16" rx="4" ry="3.2" fill="#f4a95c"/>
  <ellipse cx="45.2" cy="16" rx="1.7" ry="1.5" fill="#4a2c14"/>
</svg>
