<svg xmlns="http://www.w3.org/2000/svg" width="48" height="32" viewBox="0 0 48 32">
  <!-- Купата лает: голова вперёд, пасть открыта, дуги звука у носа. -->
  <ellipse cx="22" cy="17" rx="16" ry="9" fill="#000" opacity="0.12"/>
  <path d="M8 16 Q2 12 4 6" fill="none" stroke="#e8842c" stroke-width="3.4" stroke-linecap="round"/>
  <!-- лапы упёрты -->
  <ellipse cx="30" cy="7" rx="3.4" ry="2.4" fill="#d1731f"/>
  <ellipse cx="30" cy="25" rx="3.4" ry="2.4" fill="#d1731f"/>
  <ellipse cx="14" cy="7.5" rx="2.9" ry="2.1" fill="#c2681a"/>
  <ellipse cx="14" cy="24.5" rx="2.9" ry="2.1" fill="#c2681a"/>
  <ellipse cx="21" cy="16" rx="13.6" ry="8.4" fill="#e8842c"/>
  <ellipse cx="20" cy="15.2" rx="9.6" ry="4.9" fill="#f09a48"/>
  <!-- голова чуть вперёд -->
  <circle cx="36.6" cy="16" r="7.8" fill="#e8842c"/>
  <ellipse cx="36" cy="15" rx="5.6" ry="4.5" fill="#f09a48"/>
  <ellipse cx="33.4" cy="9.2" rx="3" ry="4" transform="rotate(-38 33.4 9.2)" fill="#b5641c"/>
  <ellipse cx="33.4" cy="22.8" rx="3" ry="4" transform="rotate(38 33.4 22.8)" fill="#b5641c"/>
  <!-- открытая пасть -->
  <path d="M42.2 13.2 L47 16 L42.2 18.8 Z" fill="#8c3b1b"/>
  <path d="M42.6 14.6 L45.4 16 L42.6 17.4 Z" fill="#e07a7a"/>
  <ellipse cx="42.6" cy="12.4" rx="1.5" ry="1.3" fill="#4a2c14"/>
</svg>
