<svg xmlns="http://www.w3.org/2000/svg" width="64" height="36" viewBox="0 0 64 36">
  <!-- Такси, вид сверху, носом вправо: жёлтое, шашечки, плафон на крыше. -->
  <rect x="2" y="4" width="60" height="28" rx="7" fill="#000" opacity="0.15" transform="translate(0.5 1)"/>
  <rect x="2" y="4" width="60" height="28" rx="7" fill="#f4c430"/>
  <rect x="3.4" y="5.4" width="57.2" height="25.2" rx="5.6" fill="#ffd75e"/>
  <path d="M47 6.2 Q59 7 60.4 16 L60.4 20 Q59 29 47 29.8 Z" fill="#f4c430"/>
  <path d="M17 6.2 Q5 7 3.6 16 L3.6 20 Q5 29 17 29.8 Z" fill="#f4c430"/>
  <!-- шашечки по бортам -->
  <g fill="#3a3a3a">
    <rect x="10" y="4.6" width="4" height="3"/><rect x="18" y="4.6" width="4" height="3"/>
    <rect x="26" y="4.6" width="4" height="3"/><rect x="34" y="4.6" width="4" height="3"/>
    <rect x="42" y="4.6" width="4" height="3"/><rect x="50" y="4.6" width="4" height="3"/>
    <rect x="10" y="28.4" width="4" height="3"/><rect x="18" y="28.4" width="4" height="3"/>
    <rect x="26" y="28.4" width="4" height="3"/><rect x="34" y="28.4" width="4" height="3"/>
    <rect x="42" y="28.4" width="4" height="3"/><rect x="50" y="28.4" width="4" height="3"/>
  </g>
  <g fill="#ffffff">
    <rect x="14" y="4.6" width="4" height="3"/><rect x="22" y="4.6" width="4" height="3"/>
    <rect x="30" y="4.6" width="4" height="3"/><rect x="38" y="4.6" width="4" height="3"/>
    <rect x="46" y="4.6" width="4" height="3"/>
    <rect x="14" y="28.4" width="4" height="3"/><rect x="22" y="28.4" width="4" height="3"/>
    <rect x="30" y="28.4" width="4" height="3"/><rect x="38" y="28.4" width="4" height="3"/>
    <rect x="46" y="28.4" width="4" height="3"/>
  </g>
  <rect x="35" y="1.4" width="4.6" height="3.4" rx="1.6" fill="#d1a01c"/>
  <rect x="35" y="31.2" width="4.6" height="3.4" rx="1.6" fill="#d1a01c"/>
  <path d="M39 6.6 Q46.4 7.6 47.6 18 Q46.4 28.4 39 29.4 Q36.6 24 36.6 18 Q36.6 12 39 6.6 Z" fill="#2e3440"/>
  <path d="M24.4 7.4 Q18.4 8.2 17.4 18 Q18.4 27.8 24.4 28.6 Q26.4 23.4 26.4 18 Q26.4 12.6 24.4 7.4 Z" fill="#2e3440"/>
  <rect x="26" y="8.4" width="11" height="19.2" rx="3.6" fill="#ffd75e"/>
  <!-- плафон «TAXI» на крыше -->
  <rect x="28" y="14.4" width="7" height="7.2" rx="1.6" fill="#3a3a3a"/>
  <rect x="29.2" y="15.8" width="4.6" height="4.4" rx="1" fill="#ffffff"/>
  <rect x="59" y="7" width="2.6" height="4.6" rx="1.3" fill="#ffe9a8"/>
  <rect x="59" y="24.4" width="2.6" height="4.6" rx="1.3" fill="#ffe9a8"/>
  <rect x="2.4" y="7" width="2.2" height="4.6" rx="1.1" fill="#d84a3a"/>
  <rect x="2.4" y="24.4" width="2.2" height="4.6" rx="1.1" fill="#d84a3a"/>
</svg>
